<svg version="1.1" xmlns="http://www.w3.org/2000/svg" width="512" height="104">
<path d="M0 0 C1.55562865 3.11125729 1.58475547 6.4970037 1.93969727 9.91870117 C2.07158951 11.14585342 2.07158951 11.14585342 2.20614624 12.39779663 C2.49681905 15.11245233 2.78177226 17.82767371 3.06640625 20.54296875 C3.26652425 22.42908684 3.46688046 24.31517966 3.66746521 26.20124817 C4.08771907 30.16132854 4.50516748 34.12169211 4.9206543 38.08227539 C5.45239491 43.14902123 5.99086724 48.21502402 6.53144932 53.28083324 C6.94677155 57.17969335 7.35856431 61.07892009 7.76930046 64.97826576 C7.96638715 66.84541377 8.16454354 68.71244919 8.36380196 70.57936668 C8.64266674 73.19732573 8.91678773 75.8157405 9.18969727 78.43432617 C9.27228287 79.20082993 9.35486847 79.96733368 9.43995667 80.75706482 C9.89696514 85.19864694 10.07627819 89.53474946 10 94 C6.91731484 95.54134258 3.57853642 95.58307272 0.18896484 95.93969727 C-1.02114761 96.07158951 -1.02114761 96.07158951 -2.25570679 96.20614624 C-4.93308256 96.49684155 -7.61103238 96.7818067 -10.2890625 97.06640625 C-12.15036314 97.2665419 -14.01164011 97.46689791 -15.87289429 97.66746521 C-19.78169356 98.08774827 -23.69078507 98.50517394 -27.60009766 98.9206543 C-32.59729362 99.45200787 -37.59367479 99.99062257 -42.58985329 100.53144932 C-46.43809821 100.94714775 -50.28676661 101.3588128 -54.13557053 101.76930046 C-55.97679561 101.96618375 -57.81788553 102.16433543 -59.65883255 102.36380196 C-62.2430023 102.64320801 -64.82769864 102.91713154 -67.41259766 103.18969727 C-68.1661554 103.27228287 -68.91971313 103.35486847 -69.69610596 103.43995667 C-74.49020666 103.93809417 -79.17970363 104.07048757 -84 104 C-86.32531023 86.11328898 -88.35536028 68.20007304 -90.27197266 50.26586914 C-90.6744265 46.50421474 -91.08608056 42.74362092 -91.4995079 38.98315907 C-91.82023583 36.05060178 -92.13425032 33.11735374 -92.44641876 30.18387413 C-92.59540018 28.79497699 -92.74689999 27.40634742 -92.90105438 26.01801491 C-93.1140231 24.09457369 -93.31652008 22.16998176 -93.51855469 20.24536133 C-93.63608093 19.15637039 -93.75360718 18.06737946 -93.87469482 16.94538879 C-93.99629546 14.08707788 -93.69450674 11.76401287 -93 9 C-82.20380867 7.82087221 -71.40706311 6.64696868 -60.60958958 5.47963715 C-55.59532128 4.93737286 -50.58125763 4.39334559 -45.56762695 3.84521484 C-40.72459649 3.31580235 -35.88107454 2.79111821 -31.03718376 2.26963806 C-29.19394793 2.07037383 -27.35089196 1.86943813 -25.50802803 1.66676331 C-22.91670457 1.38206994 -20.32479148 1.10345481 -17.73266602 0.82617188 C-16.97956146 0.74201523 -16.22645691 0.65785858 -15.45053101 0.57115173 C-10.27598289 0.02627368 -5.20347652 -0.06794922 0 0 Z " fill="#E7D54C" transform="translate(502,0)"/>
<path d="M0 0 C5.58369703 4.78936356 9.9396125 9.2514532 13 16 C-1.7449977 17.23160074 -1.7449977 17.23160074 -7.00390625 14.359375 C-8.61546249 12.96252047 -10.19127279 11.52323954 -11.7265625 10.04296875 C-17.06765856 5.24332401 -24.87509186 3.02703085 -31.98046875 2.98046875 C-43.7999633 3.74348119 -53.47078249 6.98713675 -61.6875 15.8125 C-68.34918089 24.0729843 -71.32261002 33.40763769 -71 44 C-69.61534341 54.49143643 -65.32663496 64.14949609 -56.8515625 70.7578125 C-46.66495388 77.59186638 -36.06338948 78.97650339 -24 78 C-18.00049809 76.5097268 -10.62229857 73.48511939 -6.7890625 68.390625 C-3.95813115 66.19016308 -1.31681515 66.71605096 2.1875 66.8125 C4.09595703 66.85310547 4.09595703 66.85310547 6.04296875 66.89453125 C7.50669922 66.94673828 7.50669922 66.94673828 9 67 C4.04741725 75.9661437 -5.42860688 80.80073858 -14.91796875 83.9765625 C-28.73183217 87.80084034 -41.94482218 86.33664085 -54.62109375 79.5 C-65.58205025 72.58865797 -71.82506788 63.07475844 -75.3046875 50.69140625 C-77.6911817 38.02153535 -76.99325994 25.28527645 -70.234375 14.0703125 C-62.113663 2.27290018 -51.92956675 -5.21662298 -37.75 -8.375 C-24.37771888 -10.45704056 -11.15705053 -7.89398405 0 0 Z " fill="#B0CF34" transform="translate(76,13)"/>
<path d="M0 0 C9.466875 -0.12375 9.466875 -0.12375 19.125 -0.25 C21.1064502 -0.28641602 23.08790039 -0.32283203 25.12939453 -0.36035156 C26.71385619 -0.37204267 28.29832993 -0.3822335 29.8828125 -0.390625 C30.69419678 -0.41108887 31.50558105 -0.43155273 32.34155273 -0.45263672 C37.71384875 -0.45591951 40.74330003 0.4188695 45 4 C48.46044264 8.97164861 48.45717859 13.59825491 48.375 19.4375 C48.38660156 20.25798828 48.39820313 21.07847656 48.41015625 21.92382812 C48.38412972 27.35903581 47.5535344 31.18565343 45 36 C40.86668134 39.87498624 37.08240264 40.12254481 31.58203125 40.09765625 C30.32841797 40.09443359 29.07480469 40.09121094 27.78320312 40.08789062 C26.47287109 40.07951172 25.16253906 40.07113281 23.8125 40.0625 C22.47721519 40.05748317 21.14192859 40.05292059 19.80664062 40.04882812 C16.5377412 40.03702704 13.26886498 40.01909136 10 40 C10 44.62 10 49.24 10 54 C6.7 54 3.4 54 0 54 C0 36.18 0 18.36 0 0 Z M10 10 C10 16.6 10 23.2 10 30 C14.29183178 30.05372251 18.58299786 30.0935403 22.875 30.125 C24.09832031 30.14175781 25.32164062 30.15851563 26.58203125 30.17578125 C28.33193359 30.18544922 28.33193359 30.18544922 30.1171875 30.1953125 C31.19597168 30.20578613 32.27475586 30.21625977 33.38623047 30.22705078 C36.16044022 30.26839977 36.16044022 30.26839977 38 28 C38.1720611 25.29368306 38.23239017 22.7028606 38.1875 20 C38.18685547 19.26265625 38.18621094 18.5253125 38.18554688 17.765625 C38.22791704 13.7520771 38.22791704 13.7520771 37 10 C28.09 10 19.18 10 10 10 Z " fill="currentColor" transform="translate(304,35)"/>
<path d="M0 0 C9.466875 -0.12375 9.466875 -0.12375 19.125 -0.25 C21.1064502 -0.28641602 23.08790039 -0.32283203 25.12939453 -0.36035156 C26.71385619 -0.37204267 28.29832993 -0.3822335 29.8828125 -0.390625 C30.69419678 -0.41108887 31.50558105 -0.43155273 32.34155273 -0.45263672 C37.68714765 -0.4559032 40.82708152 0.33864701 45 4 C48.4377125 9.6029502 48.42717983 16.25594374 48.0625 22.625 C48.04606445 23.83542969 48.04606445 23.83542969 48.02929688 25.0703125 C47.75513155 30.60755314 46.32976902 33.63802654 42.56811523 37.70068359 C39.22235031 40.47293346 35.72290366 40.11639323 31.58203125 40.09765625 C30.32841797 40.09443359 29.07480469 40.09121094 27.78320312 40.08789062 C26.47287109 40.07951172 25.16253906 40.07113281 23.8125 40.0625 C22.47721519 40.05748317 21.14192859 40.05292059 19.80664062 40.04882812 C16.5377412 40.03702704 13.26886498 40.01909136 10 40 C10 44.62 10 49.24 10 54 C6.7 54 3.4 54 0 54 C0 36.18 0 18.36 0 0 Z M10 10 C10 16.6 10 23.2 10 30 C14.31254083 30.02682299 18.62491707 30.04675244 22.9375 30.0625 C24.78504883 30.07506836 24.78504883 30.07506836 26.66992188 30.08789062 C27.83974609 30.09111328 29.00957031 30.09433594 30.21484375 30.09765625 C31.29886475 30.10289307 32.38288574 30.10812988 33.49975586 30.11352539 C35.94049948 30.28426897 35.94049948 30.28426897 37 29 C37.08651611 27.58429877 37.10704904 26.164405 37.09765625 24.74609375 C37.09515869 23.9770874 37.09266113 23.20808105 37.09008789 22.41577148 C37.08098389 21.43294189 37.07187988 20.4501123 37.0625 19.4375 C37.041875 16.323125 37.02125 13.20875 37 10 C28.09 10 19.18 10 10 10 Z " fill="currentColor" transform="translate(89,35)"/>
<path d="M0 0 C0.66022156 0.0028299 1.32044312 0.00565979 2.00067139 0.00857544 C4.09959397 0.01972835 6.19808242 0.04482304 8.296875 0.0703125 C9.72395215 0.08034866 11.15103602 0.0894734 12.578125 0.09765625 C16.06784828 0.11965139 19.55731923 0.15414714 23.046875 0.1953125 C23.046875 3.4953125 23.046875 6.7953125 23.046875 10.1953125 C13.476875 10.1953125 3.906875 10.1953125 -5.953125 10.1953125 C-5.623125 11.5153125 -5.293125 12.8353125 -4.953125 14.1953125 C-4.2324585 14.2046582 -3.51179199 14.21400391 -2.76928711 14.22363281 C0.52427205 14.27761257 3.81645299 14.36120677 7.109375 14.4453125 C8.24310547 14.45949219 9.37683594 14.47367188 10.54492188 14.48828125 C17.17322318 14.68152619 21.75557079 15.03838195 27.046875 19.1953125 C29.41051269 22.59384021 30.28957485 26.30358355 29.76171875 30.41796875 C28.15520086 35.56459793 25.82929513 37.55341787 21.046875 40.1953125 C18.13898406 40.71326176 15.31319595 40.66407692 12.3671875 40.5859375 C11.55442352 40.58027771 10.74165955 40.57461792 9.90426636 40.56878662 C7.32618555 40.54652088 4.74953069 40.49634565 2.171875 40.4453125 C0.41668684 40.4252347 -1.33852326 40.40698617 -3.09375 40.390625 C-7.38075189 40.34668862 -11.66669727 40.27773161 -15.953125 40.1953125 C-15.953125 36.8953125 -15.953125 33.5953125 -15.953125 30.1953125 C-4.403125 30.1953125 7.146875 30.1953125 19.046875 30.1953125 C18.551875 28.2153125 18.551875 28.2153125 18.046875 26.1953125 C16.91258057 26.18129395 16.91258057 26.18129395 15.75537109 26.16699219 C12.31022366 26.1131205 8.86640938 26.02950409 5.421875 25.9453125 C3.63716797 25.92404297 3.63716797 25.92404297 1.81640625 25.90234375 C-9.22293794 25.59398218 -9.22293794 25.59398218 -13.953125 21.1953125 C-16.34679564 17.7978445 -17.20743851 15.22494811 -16.953125 11.1328125 C-16.21855791 6.91106975 -14.32214074 4.85918541 -10.953125 2.1953125 C-7.34260252 -0.138814 -4.24072054 -0.03593831 0 0 Z " fill="currentColor" transform="translate(370.953125,34.8046875)"/>
<path d="M0 0 C0.98820992 0.00424484 0.98820992 0.00424484 1.99638367 0.00857544 C4.08501937 0.01970326 6.17321431 0.04479302 8.26171875 0.0703125 C9.68423857 0.08035191 11.10676515 0.08947608 12.52929688 0.09765625 C16.00274556 0.11961803 19.47593908 0.15409604 22.94921875 0.1953125 C22.94921875 3.4953125 22.94921875 6.7953125 22.94921875 10.1953125 C13.37921875 10.1953125 3.80921875 10.1953125 -6.05078125 10.1953125 C-5.72078125 11.5153125 -5.39078125 12.8353125 -5.05078125 14.1953125 C-3.91648682 14.20933105 -3.91648682 14.20933105 -2.75927734 14.22363281 C0.68587009 14.2775045 4.12968437 14.36112091 7.57421875 14.4453125 C9.35892578 14.46658203 9.35892578 14.46658203 11.1796875 14.48828125 C22.24634776 14.79740584 22.24634776 14.79740584 26.94921875 19.1953125 C29.8025769 23.47534972 29.79197136 27.17675866 28.94921875 32.1953125 C27.4845014 35.29739448 25.92322448 37.46180114 22.94921875 39.1953125 C14.70246032 40.70259818 6.24358176 40.30836766 -2.11328125 40.2578125 C-3.56575366 40.25278664 -5.01822776 40.24822566 -6.47070312 40.24414062 C-9.9974314 40.23322292 -13.52409527 40.21601836 -17.05078125 40.1953125 C-17.05078125 36.8953125 -17.05078125 33.5953125 -17.05078125 30.1953125 C-5.17078125 29.8653125 6.70921875 29.5353125 18.94921875 29.1953125 C18.45421875 27.7103125 18.45421875 27.7103125 17.94921875 26.1953125 C17.22331543 26.18072998 16.49741211 26.16614746 15.74951172 26.15112305 C12.44056143 26.07636391 9.13258923 25.9797946 5.82421875 25.8828125 C4.68210937 25.86025391 3.54 25.83769531 2.36328125 25.81445312 C-9.92251395 25.42159339 -9.92251395 25.42159339 -14.546875 20.65234375 C-16.85155186 16.62633148 -17.55104455 13.65167113 -16.66015625 9.0546875 C-15.40726189 5.23175344 -13.41108171 2.88821885 -9.85083008 1.07470703 C-6.44358729 0.00461474 -3.57048621 -0.03038712 0 0 Z " fill="currentColor" transform="translate(259.05078125,34.8046875)"/>
<path d="M0 0 C1.29550781 0.00644531 2.59101563 0.01289062 3.92578125 0.01953125 C5.28906519 0.03624057 6.65234644 0.05317044 8.015625 0.0703125 C9.39452485 0.0803491 10.77343165 0.08947377 12.15234375 0.09765625 C15.52361382 0.12123157 18.89453136 0.1541398 22.265625 0.1953125 C22.265625 3.4953125 22.265625 6.7953125 22.265625 10.1953125 C13.685625 10.5253125 5.105625 10.8553125 -3.734375 11.1953125 C-4.064375 12.5153125 -4.394375 13.8353125 -4.734375 15.1953125 C5.495625 15.1953125 15.725625 15.1953125 26.265625 15.1953125 C26.265625 18.4953125 26.265625 21.7953125 26.265625 25.1953125 C16.035625 25.1953125 5.805625 25.1953125 -4.734375 25.1953125 C-4.404375 26.5153125 -4.074375 27.8353125 -3.734375 29.1953125 C12.600625 29.6903125 12.600625 29.6903125 29.265625 30.1953125 C29.265625 33.4953125 29.265625 36.7953125 29.265625 40.1953125 C24.69412743 40.26989144 20.12298991 40.32411526 15.55102539 40.36010742 C13.9982282 40.37512355 12.44547291 40.39554278 10.89282227 40.42163086 C8.65109876 40.45833323 6.40993961 40.47511037 4.16796875 40.48828125 C3.48226303 40.50376511 2.79655731 40.51924896 2.09007263 40.53520203 C-3.94228988 40.53727258 -8.42312371 39.06007206 -13.140625 35.25390625 C-15.66884817 30.40194854 -15.31181221 25.6429252 -15.234375 20.2578125 C-15.24984375 19.18595703 -15.2653125 18.11410156 -15.28125 17.00976562 C-15.25058869 10.82001435 -15.04417344 6.8010302 -10.734375 2.1953125 C-7.21580039 -0.1315675 -4.15113994 -0.03641351 0 0 Z " fill="currentColor" transform="translate(154.734375,34.8046875)"/>
<path d="M0 0 C1.99919042 -0.00436504 3.99822188 -0.04137983 5.99707031 -0.07861328 C7.26808594 -0.08248047 8.53910156 -0.08634766 9.84863281 -0.09033203 C11.00669434 -0.0985498 12.16475586 -0.10676758 13.35791016 -0.11523438 C17.35250911 0.47649199 19.4975828 1.8768024 22.63769531 4.37060547 C26.09813796 9.34225408 26.0948739 13.96886038 26.01269531 19.80810547 C26.02429688 20.62859375 26.03589844 21.44908203 26.04785156 22.29443359 C26.02245503 27.59807683 25.45524277 31.73027731 22.63769531 36.37060547 C16.49357455 41.59226182 9.77003353 40.93656566 2.01269531 40.80810547 C0.79839844 40.81519531 -0.41589844 40.82228516 -1.66699219 40.82958984 C-8.95865247 40.77739184 -12.95082681 40.22129246 -18.64355469 35.46435547 C-21.41064872 30.48358622 -20.93905302 25.46683777 -20.86230469 19.87060547 C-20.87777344 18.74267578 -20.89324219 17.61474609 -20.90917969 16.45263672 C-20.87045006 8.27100341 -20.87045006 8.27100341 -18.58105469 4.21435547 C-12.82819733 -0.56618797 -7.24748891 -0.00177374 0 0 Z M-11.36230469 12.37060547 C-11.56082571 15.07983348 -11.64069946 17.66363726 -11.61230469 20.37060547 C-11.62003906 21.10794922 -11.62777344 21.84529297 -11.63574219 22.60498047 C-11.77239334 26.9548245 -11.77239334 26.9548245 -9.36230469 30.37060547 C-6.83852813 30.64868764 -6.83852813 30.64868764 -3.91699219 30.56591797 C-2.840625 30.55947266 -1.76425781 30.55302734 -0.65527344 30.54638672 C0.47265625 30.52962891 1.60058594 30.51287109 2.76269531 30.49560547 C3.89835937 30.48658203 5.03402344 30.47755859 6.20410156 30.46826172 C9.0155083 30.44463645 11.82649829 30.4116956 14.63769531 30.37060547 C16.28608475 27.07382659 15.78042269 23.42744503 15.76269531 19.80810547 C15.7665625 19.0146875 15.77042969 18.22126953 15.77441406 17.40380859 C16.14209756 13.57918926 16.14209756 13.57918926 14.63769531 10.37060547 C10.66493716 10.1180367 6.68003356 10.18538096 2.70019531 10.18310547 C1.57677734 10.17085937 0.45335937 10.15861328 -0.70410156 10.14599609 C-1.77595703 10.1440625 -2.8478125 10.14212891 -3.95214844 10.14013672 C-4.94077881 10.13602783 -5.92940918 10.13191895 -6.94799805 10.12768555 C-9.5453756 10.13183303 -9.5453756 10.13183303 -11.36230469 12.37060547 Z " fill="currentColor" transform="translate(61.3623046875,34.62939453125)"/>
<path d="M0 0 C0.495 3.96 0.495 3.96 1 8 C0.22285645 8.08564209 -0.55428711 8.17128418 -1.35498047 8.25952148 C-4.86210367 8.64823945 -8.36854584 9.04279443 -11.875 9.4375 C-13.09832031 9.57220703 -14.32164062 9.70691406 -15.58203125 9.84570312 C-16.74863281 9.97783203 -17.91523438 10.10996094 -19.1171875 10.24609375 C-20.73536377 10.42676392 -20.73536377 10.42676392 -22.38623047 10.61108398 C-24.97469229 10.85788508 -24.97469229 10.85788508 -27 12 C-27 13.32 -27 14.64 -27 16 C-26.16339844 15.9278125 -25.32679688 15.855625 -24.46484375 15.78125 C-20.64538316 15.47670829 -16.82489034 15.22323203 -13 15 C-12.32727051 14.9577832 -11.65454102 14.91556641 -10.96142578 14.87207031 C1.90327209 14.14440792 1.90327209 14.14440792 5.875 17.375 C9.2236642 21.51158518 9.5323665 24.77678155 9 30 C7.57347744 33.77608912 6.49484788 34.7503933 2.87280273 36.57739258 C-0.97221004 38.14434764 -4.78422386 38.64810975 -8.90234375 38.94921875 C-9.98619102 39.04273369 -9.98619102 39.04273369 -11.0919342 39.13813782 C-13.3730216 39.33240468 -15.65503627 39.51021892 -17.9375 39.6875 C-19.49553394 39.81726866 -21.05347827 39.94811792 -22.61132812 40.08007812 C-26.40663133 40.39921239 -30.20285561 40.70361117 -34 41 C-34.33 38.03 -34.66 35.06 -35 32 C-34.07662842 31.91435791 -33.15325684 31.82871582 -32.2019043 31.74047852 C-28.77438105 31.42088134 -25.3471871 31.09811393 -21.92016602 30.77319336 C-20.43721261 30.63324926 -18.95413947 30.49456783 -17.47094727 30.35717773 C-15.33837634 30.15941337 -13.20627799 29.9571038 -11.07421875 29.75390625 C-9.79119873 29.63345947 -8.50817871 29.5130127 -7.1862793 29.38891602 C-3.98437053 29.10532087 -3.98437053 29.10532087 -1 28 C-1 26.68 -1 25.36 -1 24 C-2.63195312 24.10828125 -2.63195312 24.10828125 -4.296875 24.21875 C-11.10798934 24.65707365 -17.9264819 25.07941205 -24.75 25.25 C-25.65234375 25.27578125 -26.5546875 25.3015625 -27.484375 25.328125 C-31.20959665 24.84222652 -34.00036705 23.28524236 -36.3125 20.3125 C-37.68702665 15.68909218 -37.64223819 11.60559547 -35.875 7.1875 C-31.6790637 2.29224098 -26.45108147 1.5736897 -20.34960938 1.02539062 C-19.42986328 0.95513672 -18.51011719 0.88488281 -17.5625 0.8125 C-16.64662109 0.73064453 -15.73074219 0.64878906 -14.78710938 0.56445312 C-9.84077187 0.14190168 -4.96336719 -0.08875347 0 0 Z " fill="#020200" transform="translate(496,38)"/>
<path d="M0 0 C2.28078551 0.00850767 4.55906131 -0.02026973 6.83959961 -0.05200195 C8.30118741 -0.0536144 9.7627796 -0.0530356 11.22436523 -0.05004883 C13.20327759 -0.05282837 13.20327759 -0.05282837 15.22216797 -0.05566406 C19.52180076 0.5384155 21.58014856 1.61570599 24.85327148 4.44604492 C27.78769418 8.87642512 28.21359131 12.34109817 28.14624023 17.59448242 C28.14199539 18.25187408 28.13775055 18.90926575 28.13337708 19.58657837 C28.11672126 21.66516883 28.07909768 23.74275266 28.04077148 25.82104492 C28.02570754 27.23899957 28.01202214 28.65696957 27.99975586 30.07495117 C27.96686186 33.53230382 27.91517313 36.98907595 27.85327148 40.44604492 C24.55327148 40.44604492 21.25327148 40.44604492 17.85327148 40.44604492 C17.52327148 30.87604492 17.19327148 21.30604492 16.85327148 11.44604492 C7.28327148 11.11604492 -2.28672852 10.78604492 -12.14672852 10.44604492 C-12.47672852 20.34604492 -12.80672852 30.24604492 -13.14672852 40.44604492 C-16.44672852 40.44604492 -19.74672852 40.44604492 -23.14672852 40.44604492 C-23.2460794 36.14109477 -23.3184212 31.83676309 -23.36645508 27.53100586 C-23.38649184 26.0683224 -23.41372955 24.60571826 -23.44848633 23.14331055 C-23.49736077 21.03308482 -23.51977511 18.92392357 -23.53735352 16.81323242 C-23.55830078 15.54592285 -23.57924805 14.27861328 -23.60083008 12.97290039 C-22.93602304 7.80956573 -20.87731132 4.84773366 -16.86523438 1.59814453 C-11.56152348 -0.64956195 -5.67725817 -0.03236471 0 0 Z " fill="currentColor" transform="translate(211.146728515625,34.553955078125)"/>
<path d="M0 0 C1.89453125 1.54296875 1.89453125 1.54296875 3.1875 2.8125 C3.1875 3.1425 3.1875 3.4725 3.1875 3.8125 C-4.68069582 5.61713207 -12.21691521 5.51315237 -19.8125 2.8125 C-27.6365298 1.89819767 -34.12587957 3.86075977 -41 7.5 C-46.19001286 11.76734391 -50.52284065 17.10627137 -51.8125 23.8125 C-52.64551051 32.76736295 -51.76352568 40.47963891 -46.3046875 47.84765625 C-40.6274404 54.06622226 -33.43703924 57.22628251 -25.08203125 57.85546875 C-20.5142242 57.76898703 -15.87951018 56.98589366 -11.87890625 54.71484375 C-9.20808545 53.5485685 -7.43136294 53.81001803 -4.5625 54.1875 C-3.67046875 54.29835937 -2.7784375 54.40921875 -1.859375 54.5234375 C-1.18390625 54.61882812 -0.5084375 54.71421875 0.1875 54.8125 C-4.62687469 60.67347788 -11.29306979 62.86594026 -18.625 63.75 C-29.6278038 64.29524695 -38.58760461 61.12678197 -46.8125 53.8125 C-54.52545388 45.8003367 -57.45606316 36.70515315 -57.27856445 25.71044922 C-56.81320531 15.60653322 -53.16864688 9.23699356 -46.23828125 2.01171875 C-33.31953657 -9.7004443 -14.07295163 -10.3734901 0 0 Z " fill="#AECD35" transform="translate(63.8125,25.1875)"/>
<path d="M0 0 C2.64 0 5.28 0 8 0 C9.5458297 8.65882915 10.69296494 17.31753836 11.625 26.0625 C11.7590625 27.25166016 11.893125 28.44082031 12.03125 29.66601562 C14.40439117 51.71443433 14.40439117 51.71443433 9 59 C4.5984641 64.00326486 0.50426813 65.85890033 -6 67 C-6.33 64.36 -6.66 61.72 -7 59 C-6.18595703 58.56300781 -6.18595703 58.56300781 -5.35546875 58.1171875 C-4.64003906 57.70726562 -3.92460937 57.29734375 -3.1875 56.875 C-2.12595703 56.28332031 -2.12595703 56.28332031 -1.04296875 55.6796875 C1.70690421 53.41879769 2.72651078 51.31107198 4 48 C4.25845071 45.08863551 4.25845071 45.08863551 3.875 41.9375 C3.76027344 40.65101562 3.64554687 39.36453125 3.52734375 38.0390625 C3.35352508 36.35917077 3.17743874 34.67951321 3 33 C2.75114523 30.57032856 2.50246198 28.14063955 2.25390625 25.7109375 C1.84936979 21.77441133 1.44030926 17.838617 1.01708984 13.90405273 C0.88641113 12.68403564 0.75573242 11.46401855 0.62109375 10.20703125 C0.5017749 9.1085083 0.38245605 8.00998535 0.25952148 6.87817383 C0 4 0 4 0 0 Z " fill="#010100" transform="translate(442,31)"/>
<path d="M0 0 C2.97 0 5.94 0 9 0 C9 13.2 9 26.4 9 40 C6.03 40 3.06 40 0 40 C0 26.8 0 13.6 0 0 Z " fill="currentColor" transform="translate(291,35)"/>
<path d="M0 0 C-1.4616754 3.41057594 -3.07591134 5.69150895 -6 8 C-7.9850114 8.48024469 -9.97115212 8.95795026 -11.96875 9.3828125 C-16.24065032 10.68081298 -19.10170772 13.4892357 -21.375 17.3125 C-22.83548262 23.59257526 -22.54746437 28.61878269 -19.37890625 34.23828125 C-16.84983717 37.46947149 -13.90666434 38.90327862 -10 40 C-7.16574406 40.32153324 -4.34781491 40.49808711 -1.5 40.65234375 C1.87466494 41.12163309 3.70235845 42.54390041 6 45 C-0.15783248 47.05261083 -7.50989488 47.11793143 -13.4375 44.3125 C-19.55456743 40.6777208 -23.8404276 35.80207564 -26 29 C-27.07061859 21.67869914 -26.09761198 15.21915664 -22 9 C-16.41891485 2.39234219 -8.60626485 -0.66202037 0 0 Z " fill="#B4D439" transform="translate(40,33)"/>
<path d="M0 0 C5.45454545 0.45454545 5.45454545 0.45454545 8 3 C8.25 6.5 8.25 6.5 8 10 C6 12 6 12 2.5625 12.4375 C-1 12 -1 12 -3.0625 9.8125 C-4 7 -4 7 -3.3125 4.3125 C-2 2 -2 2 0 0 Z " fill="#010100" transform="translate(423,73)"/>
<path d="M0 0 C0.33 0 0.66 0 1 0 C1 2.97 1 5.94 1 9 C1.99 9.33 2.98 9.66 4 10 C4.33 11.65 4.66 13.3 5 15 C4.01 15.33 3.02 15.66 2 16 C0.24836544 12.22777911 -0.22490027 9.333361 -0.125 5.1875 C-0.10695313 4.21167969 -0.08890625 3.23585937 -0.0703125 2.23046875 C-0.04710937 1.49441406 -0.02390625 0.75835937 0 0 Z " fill="#C7EA3E" transform="translate(14,51)"/>
</svg>
